# xmcd CD database file
#
# Track frame offsets:
#	150
#	13159
#	27112
#	39528
#	54775
#	81312
#	109400
#	159429
#	176787
#	190996
#	203103
#	217968
#	233159
#	248696
#	264420
#	281242
#	299913
#	315301
#
# Disc length: 4372 seconds
#
# Revision: 4
# Processed by: cddbd v1.5.2PL0 Copyright (c) Steve Scherf et al.
# Submitted via: CDex 1.51
#
DISCID=04111212
DTITLE=Buck Clayton - From New York to Paris  {1944-1953}
DYEAR=2004
DGENRE=Jazz
TTITLE0=A Shanti In Old Shanti Town  (take 2)  [1944]
TTITLE1=Deep Purple  [1945]
TTITLE2=Stomping At The Savoy  [1945]
TTITLE3=What'll It Be  [1945]
TTITLE4=Basic Organ Blues  [1953]
TTITLE5=S'Wonderfull  [1953]
TTITLE6=Lean Baby  [1953]
TTITLE7=It's Been So Long  [1953]
TTITLE8=Blues In First  [1949]
TTITLE9=Don's Blues  [1949]
TTITLE10=Japanese Sandman  [1949]
TTITLE11=Wrap Your Troubles In Dreams  [1953]
TTITLE12=Sweethearts On Parade  [1953]
TTITLE13=Lazy River  [1953]
TTITLE14=Sahiva Boogie  [1953]
TTITLE15=Promenade Blues  [1953]
TTITLE16=Blues En Cuivres  [1953]
TTITLE17=Relax Alix  [1953]
EXTD=YEAR: 2004
EXTT0=
EXTT1=
EXTT2=
EXTT3=
EXTT4=
EXTT5=
EXTT6=
EXTT7=
EXTT8=
EXTT9=
EXTT10=
EXTT11=
EXTT12=
EXTT13=
EXTT14=
EXTT15=
EXTT16=
EXTT17=
PLAYORDER=
